<svg viewBox="0 0 680 430" xmlns="http://www.w3.org/2000/svg">
  <rect width="680" height="430" fill="#FFFFFF"/>
  <defs>
    <marker id="p2a0" markerWidth="8" markerHeight="6" refX="7" refY="3" orient="auto"><path d="M0,0 L0,6 L8,3 z" fill="#2C2C2A"/></marker>
    <marker id="p2ag" markerWidth="8" markerHeight="6" refX="7" refY="3" orient="auto"><path d="M0,0 L0,6 L8,3 z" fill="#3B6D11"/></marker>
    <marker id="p2ab" markerWidth="8" markerHeight="6" refX="7" refY="3" orient="auto"><path d="M0,0 L0,6 L8,3 z" fill="#3B8BD4"/></marker>
    <marker id="p2ao" markerWidth="8" markerHeight="6" refX="7" refY="3" orient="auto"><path d="M0,0 L0,6 L8,3 z" fill="#EF9F27"/></marker>
  </defs>
  <text x="340" y="20" text-anchor="middle" font-family="sans-serif" font-size="14" font-weight="500" fill="#2C2C2A">#25 Reverse Nodes in k-Group — [1→2→3→4→5→6→7], k=3</text>
  <!-- Frame 1: Initial -->
  <rect x="10" y="28" width="660" height="82" rx="6" fill="#F8F8F7" stroke="#888780" stroke-width="0.5"/>
  <circle cx="28" cy="45" r="10" fill="#2C2C2A"/><text x="28" y="49" text-anchor="middle" font-family="sans-serif" font-size="11" fill="#FFFFFF">1</text>
  <text x="48" y="49" font-family="sans-serif" font-size="11" font-weight="500" fill="#2C2C2A">Initial — prev_tail=dummy · has_k_nodes(1,3)? ✓ — commit to Group 1</text>
  <rect x="107" y="56" width="175" height="30" rx="4" fill="#EBF4FF" stroke="#3B8BD4" stroke-width="0.8"/>
  <rect x="305" y="56" width="175" height="30" rx="4" fill="#FFF3E0" stroke="#EF9F27" stroke-width="0.8"/>
  <text x="194" y="53" text-anchor="middle" font-family="sans-serif" font-size="9" fill="#3B8BD4">Group 1</text>
  <text x="392" y="53" text-anchor="middle" font-family="sans-serif" font-size="9" fill="#EF9F27">Group 2</text>
  <rect x="40" y="59" width="44" height="26" rx="6" fill="#F5F5F5" stroke="#888780" stroke-width="0.5"/><text x="62" y="77" text-anchor="middle" font-family="sans-serif" font-size="11" fill="#888780">0</text>
  <rect x="106" y="59" width="44" height="26" rx="6" fill="#3B8BD4" stroke="#3B8BD4" stroke-width="0.5"/><text x="128" y="77" text-anchor="middle" font-family="sans-serif" font-size="13" fill="#FFFFFF">1</text>
  <rect x="172" y="59" width="44" height="26" rx="6" fill="#3B8BD4" stroke="#3B8BD4" stroke-width="0.5"/><text x="194" y="77" text-anchor="middle" font-family="sans-serif" font-size="13" fill="#FFFFFF">2</text>
  <rect x="238" y="59" width="44" height="26" rx="6" fill="#3B8BD4" stroke="#3B8BD4" stroke-width="0.5"/><text x="260" y="77" text-anchor="middle" font-family="sans-serif" font-size="13" fill="#FFFFFF">3</text>
  <rect x="304" y="59" width="44" height="26" rx="6" fill="#EF9F27" stroke="#EF9F27" stroke-width="0.5"/><text x="326" y="77" text-anchor="middle" font-family="sans-serif" font-size="13" fill="#FFFFFF">4</text>
  <rect x="370" y="59" width="44" height="26" rx="6" fill="#EF9F27" stroke="#EF9F27" stroke-width="0.5"/><text x="392" y="77" text-anchor="middle" font-family="sans-serif" font-size="13" fill="#FFFFFF">5</text>
  <rect x="436" y="59" width="44" height="26" rx="6" fill="#EF9F27" stroke="#EF9F27" stroke-width="0.5"/><text x="458" y="77" text-anchor="middle" font-family="sans-serif" font-size="13" fill="#FFFFFF">6</text>
  <rect x="502" y="59" width="44" height="26" rx="6" fill="#FFFFFF" stroke="#888780" stroke-width="0.5"/><text x="524" y="77" text-anchor="middle" font-family="sans-serif" font-size="13" fill="#888780">7</text>
  <line x1="84" y1="72" x2="102" y2="72" stroke="#2C2C2A" stroke-width="1.5" marker-end="url(#p2a0)"/>
  <line x1="150" y1="72" x2="168" y2="72" stroke="#3B8BD4" stroke-width="1.5" marker-end="url(#p2ab)"/>
  <line x1="216" y1="72" x2="234" y2="72" stroke="#3B8BD4" stroke-width="1.5" marker-end="url(#p2ab)"/>
  <line x1="282" y1="72" x2="300" y2="72" stroke="#2C2C2A" stroke-width="1.5" marker-end="url(#p2a0)"/>
  <line x1="348" y1="72" x2="366" y2="72" stroke="#EF9F27" stroke-width="1.5" marker-end="url(#p2ao)"/>
  <line x1="414" y1="72" x2="432" y2="72" stroke="#EF9F27" stroke-width="1.5" marker-end="url(#p2ao)"/>
  <line x1="480" y1="72" x2="498" y2="72" stroke="#2C2C2A" stroke-width="1.5" marker-end="url(#p2a0)"/>
  <text x="62" y="99" text-anchor="middle" font-family="sans-serif" font-size="10" fill="#888780">prev_tail</text>
  <!-- Frame 2: After Group 1 -->
  <rect x="10" y="118" width="660" height="92" rx="6" fill="#F8F8F7" stroke="#888780" stroke-width="0.5"/>
  <circle cx="28" cy="135" r="10" fill="#2C2C2A"/><text x="28" y="139" text-anchor="middle" font-family="sans-serif" font-size="11" fill="#FFFFFF">2</text>
  <text x="48" y="135" font-family="sans-serif" font-size="11" font-weight="500" fill="#2C2C2A">Group 1 reversed: 3→2→1 · dummy.next=3 · node(1).next=4 · prev_tail=node(1)</text>
  <rect x="40" y="148" width="44" height="26" rx="6" fill="#F5F5F5" stroke="#888780" stroke-width="0.5"/><text x="62" y="166" text-anchor="middle" font-family="sans-serif" font-size="11" fill="#888780">0</text>
  <rect x="106" y="148" width="44" height="26" rx="6" fill="#3B6D11" stroke="#3B6D11" stroke-width="0.5"/><text x="128" y="166" text-anchor="middle" font-family="sans-serif" font-size="13" fill="#FFFFFF">3</text>
  <rect x="172" y="148" width="44" height="26" rx="6" fill="#3B6D11" stroke="#3B6D11" stroke-width="0.5"/><text x="194" y="166" text-anchor="middle" font-family="sans-serif" font-size="13" fill="#FFFFFF">2</text>
  <rect x="238" y="148" width="44" height="26" rx="6" fill="#3B6D11" stroke="#3B6D11" stroke-width="0.5"/><text x="260" y="166" text-anchor="middle" font-family="sans-serif" font-size="13" fill="#FFFFFF">1</text>
  <rect x="304" y="148" width="44" height="26" rx="6" fill="#EF9F27" stroke="#EF9F27" stroke-width="0.5"/><text x="326" y="166" text-anchor="middle" font-family="sans-serif" font-size="13" fill="#FFFFFF">4</text>
  <rect x="370" y="148" width="44" height="26" rx="6" fill="#EF9F27" stroke="#EF9F27" stroke-width="0.5"/><text x="392" y="166" text-anchor="middle" font-family="sans-serif" font-size="13" fill="#FFFFFF">5</text>
  <rect x="436" y="148" width="44" height="26" rx="6" fill="#EF9F27" stroke="#EF9F27" stroke-width="0.5"/><text x="458" y="166" text-anchor="middle" font-family="sans-serif" font-size="13" fill="#FFFFFF">6</text>
  <rect x="502" y="148" width="44" height="26" rx="6" fill="#FFFFFF" stroke="#888780" stroke-width="0.5"/><text x="524" y="166" text-anchor="middle" font-family="sans-serif" font-size="13" fill="#888780">7</text>
  <line x1="84" y1="161" x2="102" y2="161" stroke="#3B6D11" stroke-width="2" marker-end="url(#p2ag)"/>
  <line x1="150" y1="161" x2="168" y2="161" stroke="#3B6D11" stroke-width="1.5" marker-end="url(#p2ag)"/>
  <line x1="216" y1="161" x2="234" y2="161" stroke="#3B6D11" stroke-width="1.5" marker-end="url(#p2ag)"/>
  <line x1="282" y1="161" x2="300" y2="161" stroke="#2C2C2A" stroke-width="1.5" marker-end="url(#p2a0)"/>
  <line x1="348" y1="161" x2="366" y2="161" stroke="#EF9F27" stroke-width="1.5" marker-end="url(#p2ao)"/>
  <line x1="414" y1="161" x2="432" y2="161" stroke="#EF9F27" stroke-width="1.5" marker-end="url(#p2ao)"/>
  <line x1="480" y1="161" x2="498" y2="161" stroke="#2C2C2A" stroke-width="1.5" marker-end="url(#p2a0)"/>
  <text x="260" y="188" text-anchor="middle" font-family="sans-serif" font-size="10" fill="#888780">prev_tail → node(1)</text>
  <text x="128" y="188" text-anchor="middle" font-family="sans-serif" font-size="10" fill="#3B6D11">new head</text>
  <!-- Frame 3: After Group 2 -->
  <rect x="10" y="218" width="660" height="92" rx="6" fill="#F8F8F7" stroke="#888780" stroke-width="0.5"/>
  <circle cx="28" cy="235" r="10" fill="#2C2C2A"/><text x="28" y="239" text-anchor="middle" font-family="sans-serif" font-size="11" fill="#FFFFFF">3</text>
  <text x="48" y="235" font-family="sans-serif" font-size="11" font-weight="500" fill="#2C2C2A">Group 2 reversed: 6→5→4 · node(1).next=6 · node(4).next=7 · prev_tail=node(4)</text>
  <rect x="40" y="248" width="44" height="26" rx="6" fill="#F5F5F5" stroke="#888780" stroke-width="0.5"/><text x="62" y="266" text-anchor="middle" font-family="sans-serif" font-size="11" fill="#888780">0</text>
  <rect x="106" y="248" width="44" height="26" rx="6" fill="#3B6D11" stroke="#3B6D11" stroke-width="0.5"/><text x="128" y="266" text-anchor="middle" font-family="sans-serif" font-size="13" fill="#FFFFFF">3</text>
  <rect x="172" y="248" width="44" height="26" rx="6" fill="#3B6D11" stroke="#3B6D11" stroke-width="0.5"/><text x="194" y="266" text-anchor="middle" font-family="sans-serif" font-size="13" fill="#FFFFFF">2</text>
  <rect x="238" y="248" width="44" height="26" rx="6" fill="#3B6D11" stroke="#3B6D11" stroke-width="0.5"/><text x="260" y="266" text-anchor="middle" font-family="sans-serif" font-size="13" fill="#FFFFFF">1</text>
  <rect x="304" y="248" width="44" height="26" rx="6" fill="#3B6D11" stroke="#3B6D11" stroke-width="0.5"/><text x="326" y="266" text-anchor="middle" font-family="sans-serif" font-size="13" fill="#FFFFFF">6</text>
  <rect x="370" y="248" width="44" height="26" rx="6" fill="#3B6D11" stroke="#3B6D11" stroke-width="0.5"/><text x="392" y="266" text-anchor="middle" font-family="sans-serif" font-size="13" fill="#FFFFFF">5</text>
  <rect x="436" y="248" width="44" height="26" rx="6" fill="#3B6D11" stroke="#3B6D11" stroke-width="0.5"/><text x="458" y="266" text-anchor="middle" font-family="sans-serif" font-size="13" fill="#FFFFFF">4</text>
  <rect x="502" y="248" width="44" height="26" rx="6" fill="#FFFFFF" stroke="#888780" stroke-width="0.5"/><text x="524" y="266" text-anchor="middle" font-family="sans-serif" font-size="13" fill="#888780">7</text>
  <line x1="84" y1="261" x2="102" y2="261" stroke="#3B6D11" stroke-width="1.5" marker-end="url(#p2ag)"/>
  <line x1="150" y1="261" x2="168" y2="261" stroke="#3B6D11" stroke-width="1.5" marker-end="url(#p2ag)"/>
  <line x1="216" y1="261" x2="234" y2="261" stroke="#3B6D11" stroke-width="1.5" marker-end="url(#p2ag)"/>
  <line x1="282" y1="261" x2="300" y2="261" stroke="#3B6D11" stroke-width="1.5" marker-end="url(#p2ag)"/>
  <line x1="348" y1="261" x2="366" y2="261" stroke="#3B6D11" stroke-width="1.5" marker-end="url(#p2ag)"/>
  <line x1="414" y1="261" x2="432" y2="261" stroke="#3B6D11" stroke-width="1.5" marker-end="url(#p2ag)"/>
  <line x1="480" y1="261" x2="498" y2="261" stroke="#2C2C2A" stroke-width="1.5" marker-end="url(#p2a0)"/>
  <text x="458" y="288" text-anchor="middle" font-family="sans-serif" font-size="10" fill="#888780">prev_tail → node(4)</text>
  <!-- Frame 4: Final -->
  <rect x="10" y="318" width="660" height="100" rx="6" fill="#EDF7EE" stroke="#3B6D11" stroke-width="1"/>
  <circle cx="28" cy="335" r="10" fill="#3B6D11"/><text x="28" y="339" text-anchor="middle" font-family="sans-serif" font-size="11" fill="#FFFFFF">✓</text>
  <text x="48" y="335" font-family="sans-serif" font-size="11" font-weight="500" fill="#3B6D11">has_k_nodes(7, 3)? ✗ — only 1 node left. Loop exits. Return dummy.next = node(3).</text>
  <rect x="40" y="348" width="44" height="26" rx="6" fill="#F5F5F5" stroke="#888780" stroke-width="0.5"/><text x="62" y="366" text-anchor="middle" font-family="sans-serif" font-size="11" fill="#888780">0</text>
  <rect x="106" y="348" width="44" height="26" rx="6" fill="#3B6D11" stroke="#3B6D11" stroke-width="0.5"/><text x="128" y="366" text-anchor="middle" font-family="sans-serif" font-size="13" fill="#FFFFFF">3</text>
  <rect x="172" y="348" width="44" height="26" rx="6" fill="#3B6D11" stroke="#3B6D11" stroke-width="0.5"/><text x="194" y="366" text-anchor="middle" font-family="sans-serif" font-size="13" fill="#FFFFFF">2</text>
  <rect x="238" y="348" width="44" height="26" rx="6" fill="#3B6D11" stroke="#3B6D11" stroke-width="0.5"/><text x="260" y="366" text-anchor="middle" font-family="sans-serif" font-size="13" fill="#FFFFFF">1</text>
  <rect x="304" y="348" width="44" height="26" rx="6" fill="#3B6D11" stroke="#3B6D11" stroke-width="0.5"/><text x="326" y="366" text-anchor="middle" font-family="sans-serif" font-size="13" fill="#FFFFFF">6</text>
  <rect x="370" y="348" width="44" height="26" rx="6" fill="#3B6D11" stroke="#3B6D11" stroke-width="0.5"/><text x="392" y="366" text-anchor="middle" font-family="sans-serif" font-size="13" fill="#FFFFFF">5</text>
  <rect x="436" y="348" width="44" height="26" rx="6" fill="#3B6D11" stroke="#3B6D11" stroke-width="0.5"/><text x="458" y="366" text-anchor="middle" font-family="sans-serif" font-size="13" fill="#FFFFFF">4</text>
  <rect x="502" y="348" width="44" height="26" rx="6" fill="#FFFFFF" stroke="#888780" stroke-width="0.5"/><text x="524" y="366" text-anchor="middle" font-family="sans-serif" font-size="13" fill="#888780">7</text>
  <line x1="84" y1="361" x2="102" y2="361" stroke="#3B6D11" stroke-width="1.5" marker-end="url(#p2ag)"/>
  <line x1="150" y1="361" x2="168" y2="361" stroke="#3B6D11" stroke-width="1.5" marker-end="url(#p2ag)"/>
  <line x1="216" y1="361" x2="234" y2="361" stroke="#3B6D11" stroke-width="1.5" marker-end="url(#p2ag)"/>
  <line x1="282" y1="361" x2="300" y2="361" stroke="#3B6D11" stroke-width="1.5" marker-end="url(#p2ag)"/>
  <line x1="348" y1="361" x2="366" y2="361" stroke="#3B6D11" stroke-width="1.5" marker-end="url(#p2ag)"/>
  <line x1="414" y1="361" x2="432" y2="361" stroke="#3B6D11" stroke-width="1.5" marker-end="url(#p2ag)"/>
  <line x1="480" y1="361" x2="498" y2="361" stroke="#888780" stroke-width="1.5" marker-end="url(#p2a0)"/>
  <text x="340" y="395" text-anchor="middle" font-family="sans-serif" font-size="12" font-weight="500" fill="#3B6D11">3 → 2 → 1 → 6 → 5 → 4 → 7   ✓   (node 7 untouched: fewer than k=3 remain)</text>
  <text x="340" y="412" text-anchor="middle" font-family="sans-serif" font-size="11" fill="#888780">Amortized: has_k_nodes peeks 6 nodes total + 6 reversal ops = 12 ops = O(n)</text>
</svg>
