<svg viewBox="0 0 680 430" xmlns="http://www.w3.org/2000/svg" font-family="sans-serif">
  <rect width="680" height="430" fill="#FFFFFF"/>
  <defs>
    <marker id="a2" markerWidth="6" markerHeight="6" refX="5" refY="3" orient="auto">
      <path d="M0,0 L6,3 L0,6 Z" fill="#2C2C2A"/>
    </marker>
  </defs>
  <text x="340" y="22" text-anchor="middle" font-size="14" font-weight="500" fill="#2C2C2A">Problem 2: Merge k Sorted Lists (#23) — Heap Walkthrough</text>
  <text x="340" y="38" text-anchor="middle" font-size="12" fill="#888780">lists = [1→4→5,  1→3→4,  2→6]</text>

  <text x="20" y="58" font-size="12" font-weight="500" fill="#2C2C2A">Step</text>
  <text x="80" y="58" font-size="12" font-weight="500" fill="#EF9F27">Heap top (min)</text>
  <text x="250" y="58" font-size="12" font-weight="500" fill="#2C2C2A">Action</text>
  <text x="470" y="58" font-size="12" font-weight="500" fill="#3B6D11">Output so far</text>
  <line x1="15" y1="62" x2="665" y2="62" stroke="#888780" stroke-width="0.5"/>

  <text x="20" y="82" font-size="11" fill="#2C2C2A">Init</text>
  <rect x="75" y="68" width="90" height="22" rx="5" fill="#EF9F27" stroke="#2C2C2A" stroke-width="0.5"/>
  <text x="120" y="84" text-anchor="middle" font-size="11" fill="#FFF">(1,0,L0.head)</text>
  <rect x="170" y="68" width="70" height="22" rx="5" fill="#888780" stroke="#2C2C2A" stroke-width="0.5"/>
  <text x="205" y="84" text-anchor="middle" font-size="11" fill="#FFF">(1,1,L1.head)</text>
  <text x="250" y="82" font-size="11" fill="#2C2C2A">Push all 3 heads into heap</text>
  <text x="470" y="82" font-size="11" fill="#888780">(empty)</text>

  <line x1="15" y1="96" x2="665" y2="96" stroke="#F0F0F0" stroke-width="1"/>
  <circle cx="27" cy="108" r="10" fill="#3B8BD4"/><text x="27" y="113" text-anchor="middle" font-size="10" fill="#FFF">1</text>
  <rect x="75" y="96" width="90" height="22" rx="5" fill="#EF9F27" stroke="#2C2C2A" stroke-width="0.5"/>
  <text x="120" y="112" text-anchor="middle" font-size="11" fill="#FFF">pop (1,0,node1/L0)</text>
  <text x="250" y="112" font-size="11" fill="#2C2C2A">wire node(1/L0) → push (4,0,node4/L0)</text>
  <text x="470" y="112" font-size="11" fill="#3B6D11">dummy→1</text>

  <line x1="15" y1="126" x2="665" y2="126" stroke="#F0F0F0" stroke-width="1"/>
  <circle cx="27" cy="138" r="10" fill="#3B8BD4"/><text x="27" y="143" text-anchor="middle" font-size="10" fill="#FFF">2</text>
  <rect x="75" y="126" width="90" height="22" rx="5" fill="#EF9F27" stroke="#2C2C2A" stroke-width="0.5"/>
  <text x="120" y="142" text-anchor="middle" font-size="11" fill="#FFF">pop (1,1,node1/L1)</text>
  <text x="250" y="142" font-size="11" fill="#2C2C2A">wire node(1/L1) → push (3,1,node3/L1)</text>
  <text x="470" y="142" font-size="11" fill="#3B6D11">dummy→1→1</text>

  <line x1="15" y1="156" x2="665" y2="156" stroke="#F0F0F0" stroke-width="1"/>
  <circle cx="27" cy="168" r="10" fill="#3B8BD4"/><text x="27" y="173" text-anchor="middle" font-size="10" fill="#FFF">3</text>
  <rect x="75" y="156" width="90" height="22" rx="5" fill="#EF9F27" stroke="#2C2C2A" stroke-width="0.5"/>
  <text x="120" y="172" text-anchor="middle" font-size="11" fill="#FFF">pop (2,2,node2/L2)</text>
  <text x="250" y="172" font-size="11" fill="#2C2C2A">wire node(2/L2) → push (6,2,node6/L2)</text>
  <text x="470" y="172" font-size="11" fill="#3B6D11">dummy→1→1→2</text>

  <line x1="15" y1="186" x2="665" y2="186" stroke="#F0F0F0" stroke-width="1"/>
  <circle cx="27" cy="198" r="10" fill="#3B8BD4"/><text x="27" y="203" text-anchor="middle" font-size="10" fill="#FFF">4</text>
  <rect x="75" y="186" width="90" height="22" rx="5" fill="#EF9F27" stroke="#2C2C2A" stroke-width="0.5"/>
  <text x="120" y="202" text-anchor="middle" font-size="11" fill="#FFF">pop (3,1,node3/L1)</text>
  <text x="250" y="202" font-size="11" fill="#2C2C2A">wire node(3/L1) → push (4,1,node4/L1)</text>
  <text x="470" y="202" font-size="11" fill="#3B6D11">dummy→1→1→2→3</text>

  <line x1="15" y1="216" x2="665" y2="216" stroke="#F0F0F0" stroke-width="1"/>
  <circle cx="27" cy="228" r="10" fill="#3B8BD4"/><text x="27" y="233" text-anchor="middle" font-size="10" fill="#FFF">5</text>
  <rect x="75" y="216" width="90" height="22" rx="5" fill="#EF9F27" stroke="#2C2C2A" stroke-width="0.5"/>
  <text x="120" y="232" text-anchor="middle" font-size="11" fill="#FFF">pop (4,0,node4/L0)</text>
  <text x="250" y="232" font-size="11" fill="#2C2C2A">wire node(4/L0) → push (5,0,node5/L0)</text>
  <text x="470" y="232" font-size="11" fill="#3B6D11">dummy→1→1→2→3→4</text>

  <line x1="15" y1="246" x2="665" y2="246" stroke="#F0F0F0" stroke-width="1"/>
  <circle cx="27" cy="258" r="10" fill="#3B8BD4"/><text x="27" y="263" text-anchor="middle" font-size="10" fill="#FFF">6</text>
  <rect x="75" y="246" width="90" height="22" rx="5" fill="#EF9F27" stroke="#2C2C2A" stroke-width="0.5"/>
  <text x="120" y="262" text-anchor="middle" font-size="11" fill="#FFF">pop (4,1,node4/L1)</text>
  <text x="250" y="262" font-size="11" fill="#2C2C2A">wire node(4/L1) → node.next=∅ don't push</text>
  <text x="470" y="262" font-size="11" fill="#3B6D11">dummy→1→1→2→3→4→4</text>

  <line x1="15" y1="276" x2="665" y2="276" stroke="#F0F0F0" stroke-width="1"/>
  <circle cx="27" cy="288" r="10" fill="#3B8BD4"/><text x="27" y="293" text-anchor="middle" font-size="10" fill="#FFF">7</text>
  <rect x="75" y="276" width="90" height="22" rx="5" fill="#EF9F27" stroke="#2C2C2A" stroke-width="0.5"/>
  <text x="120" y="292" text-anchor="middle" font-size="11" fill="#FFF">pop (5,0,node5/L0)</text>
  <text x="250" y="292" font-size="11" fill="#2C2C2A">wire node(5/L0) → node.next=∅ don't push</text>
  <text x="470" y="292" font-size="11" fill="#3B6D11">dummy→1→1→2→3→4→4→5</text>

  <line x1="15" y1="306" x2="665" y2="306" stroke="#F0F0F0" stroke-width="1"/>
  <circle cx="27" cy="318" r="10" fill="#3B6D11"/><text x="27" y="323" text-anchor="middle" font-size="10" fill="#FFF">8</text>
  <rect x="75" y="306" width="90" height="22" rx="5" fill="#EF9F27" stroke="#2C2C2A" stroke-width="0.5"/>
  <text x="120" y="322" text-anchor="middle" font-size="11" fill="#FFF">pop (6,2,node6/L2)</text>
  <text x="250" y="322" font-size="11" fill="#2C2C2A">wire node(6/L2) → heap empty → done</text>
  <text x="470" y="322" font-size="11" fill="#3B6D11">1→1→2→3→4→4→5→6 ✓</text>

  <rect x="20" y="342" width="640" height="72" rx="6" fill="#FFF8F0" stroke="#EF9F27" stroke-width="1"/>
  <text x="36" y="362" font-size="12" font-weight="500" fill="#EF9F27">Key insight: tiebreak index prevents TypeError</text>
  <text x="36" y="380" font-size="11" fill="#2C2C2A">Steps 1 and 2 both pop value=1. Tiebreak: (1, 0, ...) &lt; (1, 1, ...) → L0 before L1.</text>
  <text x="36" y="396" font-size="11" fill="#2C2C2A">Without index i: Python compares the ListNode objects → TypeError: not supported.</text>
  <text x="36" y="412" font-size="11" fill="#2C2C2A">Each of n=8 nodes: 1 push + 1 pop = O(log k=3) each → total O(n log k) ✓</text>
</svg>
